<?xml version="1.0" encoding="UTF-8"?>
<svg width="351px" height="303px" viewBox="0 0 351 303" version="1.1" xmlns="http://www.w3.org/2000/svg" xmlns:xlink="http://www.w3.org/1999/xlink">
    <!-- Generator: Sketch 57.1 (83088) - https://sketch.com -->
    <title>Artboard</title>
    <desc>Created with Sketch.</desc>
    <g id="Artboard" stroke="none" stroke-width="1" fill="none" fill-rule="evenodd">
        <path d="M322.04,253 L351,303 L0,303 L28.96,253 L322.04,253 Z M293.079,203 L318.564,247 L32.436,247 L57.921,203 L293.079,203 Z M261.223,148 L289.604,197 L61.396,197 L89.777,148 L261.223,148 Z M232.262,98 L257.748,142 L93.252,142 L118.738,98 L232.262,98 Z M175.5,0 L228.787,92 L122.213,92 L175.5,0 Z" id="Combined-Shape" fill="#D8D8D8"></path>
        <g id="Group" transform="translate(140.000000, 59.000000)" fill="#6D7278" font-size="18" font-weight="normal">
            <text id="Audience">
                <tspan x="0" y="16">Audience</tspan>
            </text>
            <text id="Show">
                <tspan x="14" y="69">Show</tspan>
            </text>
            <text id="Scene">
                <tspan x="12" y="121">Scene</tspan>
            </text>
            <text id="Partner">
                <tspan x="7" y="172">Partner</tspan>
            </text>
            <text id="Self">
                <tspan x="20" y="223">Self</tspan>
            </text>
        </g>
    </g>
</svg>
